<?xml version="1.0" standalone="no"?>
<!DOCTYPE svg PUBLIC "-//W3C//DTD SVG 20010904//EN"
 "http://www.w3.org/TR/2001/REC-SVG-20010904/DTD/svg10.dtd">
<svg version="1.0" xmlns="http://www.w3.org/2000/svg"
 width="600.000000pt" height="265.000000pt" viewBox="0 0 600.000000 265.000000"
 preserveAspectRatio="xMidYMid meet">

<g transform="translate(0.000000,265.000000) scale(0.100000,-0.100000)"
fill="#000000" stroke="none">
<path d="M1110 2544 l0 -65 -22 15 c-12 9 -41 16 -64 16 -35 0 -47 -5 -68 -31
-22 -26 -26 -40 -26 -99 0 -59 4 -73 26 -99 21 -26 33 -31 68 -31 23 0 51 7
63 15 19 13 22 13 27 0 3 -8 15 -15 26 -15 19 0 20 6 20 180 l0 180 -25 0
c-24 0 -25 -2 -25 -66z m-24 -88 c15 -12 19 -27 19 -76 0 -66 -16 -90 -60 -90
-44 0 -60 24 -60 90 0 66 16 90 60 90 12 0 30 -6 41 -14z"/>
<path d="M1252 2601 c-21 -13 -10 -46 16 -49 27 -4 40 22 22 43 -14 17 -20 18
-38 6z"/>
<path d="M1240 2361 c0 -82 -3 -156 -6 -165 -4 -10 -18 -16 -35 -16 -22 0 -29
-5 -29 -20 0 -17 7 -20 43 -20 73 0 77 10 77 203 l0 167 -25 0 -25 0 0 -149z"/>
<path d="M1407 2503 c-11 -3 -16 -10 -13 -20 3 -8 6 -16 6 -18 0 -2 23 -1 51
2 43 5 54 3 65 -12 24 -33 16 -42 -42 -48 -62 -6 -99 -26 -109 -57 -9 -27 1
-64 21 -84 20 -21 93 -21 122 0 20 14 23 14 28 0 3 -9 15 -16 25 -16 17 0 19
9 19 105 0 99 -2 107 -25 130 -20 21 -33 25 -77 24 -29 -1 -61 -3 -71 -6z
m116 -159 c-3 -36 -29 -56 -68 -52 -24 2 -31 8 -33 29 -4 30 12 46 53 52 45 6
50 3 48 -29z"/>
<path d="M1650 2380 l0 -130 24 0 c23 0 24 3 28 89 3 99 20 131 68 131 43 0
50 -16 50 -122 l0 -98 31 0 31 0 -4 111 c-3 102 -5 113 -27 130 -28 23 -98 25
-128 4 -19 -13 -22 -13 -27 0 -3 8 -15 15 -26 15 -19 0 -20 -6 -20 -130z"/>
<path d="M1972 2487 c-28 -30 -30 -89 -3 -116 17 -17 18 -21 4 -32 -10 -9 -13
-22 -9 -42 5 -23 1 -33 -14 -44 -13 -9 -20 -25 -20 -48 0 -48 28 -65 108 -65
66 0 115 18 126 45 8 23 7 67 -2 82 -12 18 -59 33 -107 33 -73 0 -70 33 5 43
62 8 94 45 86 99 -6 33 -4 38 14 38 11 0 20 7 20 15 0 12 -17 15 -93 15 -85 0
-96 -2 -115 -23z m112 -29 c9 -12 16 -28 16 -35 0 -17 -37 -53 -54 -53 -38 0
-62 70 -34 98 19 19 55 14 72 -10z m35 -222 c37 -45 -72 -89 -127 -50 -26 18
-27 27 -6 48 20 20 117 22 133 2z"/>
<path d="M2264 2492 c-32 -26 -44 -55 -44 -111 0 -92 37 -131 123 -131 57 0
93 28 107 82 16 56 3 116 -30 150 -24 24 -37 28 -82 28 -35 0 -60 -6 -74 -18z
m120 -44 c9 -12 16 -43 16 -68 0 -57 -22 -90 -59 -90 -50 0 -66 21 -66 90 0
49 4 64 19 76 30 21 72 18 90 -8z"/>
<path d="M3434 1996 c-135 -27 -253 -119 -291 -228 -27 -80 -24 -205 9 -285
l26 -63 -414 0 -414 0 0 190 0 190 275 0 275 0 0 95 0 95 -385 0 -385 0 0
-605 0 -606 -157 3 -158 3 -58 85 c-57 84 -192 305 -202 331 -3 9 12 23 42 39
76 40 147 112 179 182 26 57 29 73 28 168 0 135 -24 201 -98 276 -98 98 -216
124 -557 124 l-239 0 0 -700 0 -700 110 0 110 0 0 285 0 286 112 -3 111 -3
128 -208 c198 -324 240 -381 315 -427 l33 -21 90 46 91 45 445 0 445 0 0 100
0 100 -275 0 -275 0 0 220 0 220 551 0 551 0 104 -50 c63 -30 120 -66 144 -90
92 -92 69 -233 -47 -291 -91 -45 -282 -32 -454 31 -46 16 -84 30 -86 30 -2 0
-3 -47 -3 -104 l0 -104 39 -15 c98 -40 165 -51 316 -51 164 -1 210 7 308 56
147 73 220 221 196 398 -13 88 -40 140 -108 202 -60 55 -81 67 -292 166 -145
68 -204 115 -220 175 -24 88 11 171 88 208 81 39 249 26 395 -32 28 -11 51
-18 52 -17 1 2 7 15 14 31 l12 27 290 0 290 0 0 -605 0 -605 110 0 110 0 0
605 0 605 200 0 200 0 0 95 0 94 -722 5 c-398 3 -761 7 -808 10 -48 3 -111 -1
-146 -8z m949 -32 l697 -5 0 -64 0 -65 -200 0 -200 0 0 -605 0 -605 -80 0 -80
0 0 605 0 605 -315 0 -315 0 -10 -25 c-5 -14 -12 -25 -14 -25 -3 0 -40 12 -83
27 -67 22 -95 26 -203 27 -116 1 -128 -1 -168 -24 -63 -36 -97 -98 -96 -175 0
-34 8 -73 17 -91 22 -43 85 -97 148 -127 30 -14 111 -52 181 -85 216 -102 281
-185 282 -357 0 -76 -4 -99 -26 -146 -29 -63 -78 -116 -141 -153 -131 -77
-392 -88 -584 -25 l-63 21 0 75 c0 67 2 75 18 70 197 -65 325 -85 428 -68 92
17 139 43 175 98 24 40 29 57 29 112 0 116 -50 170 -236 257 l-94 44 -565 0
-565 0 0 -250 0 -250 275 0 275 0 0 -70 0 -70 -431 0 -432 0 -89 -46 -90 -45
-34 26 c-57 44 -101 104 -254 351 -82 132 -154 247 -162 257 -11 16 -33 19
-145 24 l-133 6 0 -286 0 -287 -80 0 -80 0 0 671 0 671 262 -5 c275 -5 317
-10 405 -56 65 -33 110 -77 140 -139 25 -52 28 -67 28 -167 0 -94 -3 -117 -24
-163 -29 -64 -105 -136 -184 -175 -31 -15 -57 -30 -57 -33 0 -12 118 -208 202
-336 l91 -138 179 0 178 0 0 605 0 605 355 0 355 0 0 -65 0 -65 -275 0 -275 0
0 -220 0 -220 455 0 c250 0 455 2 455 5 0 3 -11 22 -24 43 -62 95 -72 251 -23
348 68 133 204 197 397 188 58 -2 419 -7 803 -10z"/>
<path d="M1100 1570 l0 -263 148 6 c165 7 198 14 263 56 66 41 99 111 99 205
0 85 -21 138 -73 183 -54 48 -121 64 -289 70 l-148 6 0 -263z m343 209 c53
-18 113 -73 128 -116 18 -55 7 -173 -20 -217 -46 -74 -144 -106 -323 -106
l-98 0 0 231 0 232 138 -6 c75 -3 154 -11 175 -18z"/>
<path d="M2639 409 c-27 -10 -49 -46 -49 -80 0 -12 -8 -23 -20 -26 -11 -3 -20
-12 -20 -19 0 -8 9 -14 20 -14 19 0 20 -7 20 -110 l0 -110 30 0 30 0 0 110 0
110 30 0 c23 0 30 4 30 20 0 16 -7 20 -31 20 -27 0 -30 3 -27 28 2 22 9 28 38
32 41 6 53 34 18 44 -29 7 -37 7 -69 -5z"/>
<path d="M4870 230 l0 -180 25 0 c23 0 25 4 25 44 0 28 6 48 16 57 15 12 20 9
43 -21 57 -74 66 -82 93 -78 l27 3 -53 70 -53 70 49 57 50 58 -30 0 c-24 0
-41 -12 -86 -62 l-56 -61 0 111 0 112 -25 0 -25 0 0 -180z"/>
<path d="M2760 180 l0 -130 24 0 c23 0 24 3 27 85 4 94 22 126 73 128 14 1 26
5 26 9 0 3 3 13 6 22 10 25 -54 21 -82 -5 l-22 -21 -7 21 c-3 12 -15 21 -26
21 -18 0 -19 -8 -19 -130z"/>
<path d="M2997 303 c-11 -3 -16 -10 -13 -20 3 -8 6 -16 6 -18 0 -2 23 -1 51 2
43 5 54 3 65 -12 24 -33 16 -42 -42 -48 -62 -6 -99 -26 -109 -57 -9 -27 1 -64
21 -84 20 -21 93 -21 122 0 20 14 23 14 28 0 3 -9 15 -16 25 -16 17 0 19 9 19
105 0 99 -2 107 -25 130 -20 21 -33 25 -77 24 -29 -1 -61 -3 -71 -6z m116
-159 c-3 -36 -29 -56 -68 -52 -24 2 -31 8 -33 29 -4 30 12 46 53 52 45 6 50 3
48 -29z"/>
<path d="M3240 180 l0 -130 25 0 c24 0 25 2 25 74 0 93 14 134 48 143 48 12
57 -5 60 -116 l3 -101 29 0 30 0 0 93 c0 104 12 127 63 127 38 0 47 -26 47
-129 0 -90 0 -91 25 -91 l25 0 0 108 c0 95 -2 111 -20 130 -25 27 -94 30 -128
6 -21 -15 -25 -15 -41 0 -22 20 -90 21 -118 1 -19 -13 -22 -13 -27 0 -3 8 -15
15 -26 15 -19 0 -20 -6 -20 -130z"/>
<path d="M3734 292 c-32 -26 -44 -55 -44 -111 0 -94 37 -131 129 -131 62 0 81
7 81 30 0 16 -7 18 -57 13 -66 -5 -88 6 -99 49 l-6 28 86 0 86 0 0 41 c0 61
-42 99 -107 99 -30 0 -56 -7 -69 -18z m110 -38 c32 -32 20 -44 -44 -44 -33 0
-60 3 -60 8 0 4 7 18 16 30 18 26 65 30 88 6z"/>
<path d="M3955 279 c4 -16 19 -74 34 -127 27 -94 29 -97 58 -100 l30 -3 30
106 29 107 29 -107 28 -106 31 3 c30 3 31 5 67 131 l37 127 -28 0 c-28 0 -29
-3 -53 -102 l-25 -103 -12 45 c-46 172 -41 161 -74 158 -30 -3 -32 -6 -57 -98
-27 -96 -30 -97 -48 -25 -31 125 -31 125 -57 125 -23 0 -25 -3 -19 -31z"/>
<path d="M4404 292 c-32 -26 -44 -55 -44 -111 0 -92 37 -131 123 -131 57 0 93
28 107 82 16 56 3 116 -30 150 -24 24 -37 28 -82 28 -35 0 -60 -6 -74 -18z
m120 -44 c9 -12 16 -43 16 -68 0 -57 -22 -90 -59 -90 -50 0 -66 21 -66 90 0
49 4 64 19 76 30 21 72 18 90 -8z"/>
<path d="M4660 180 l0 -130 24 0 c23 0 24 3 27 85 4 94 22 126 73 128 14 1 26
5 26 9 0 3 3 13 6 22 10 25 -54 21 -82 -5 l-22 -21 -7 21 c-3 12 -15 21 -26
21 -18 0 -19 -8 -19 -130z"/>
</g>
</svg>
